<?xml version="1.0" encoding="UTF-8"?><!DOCTYPE svg PUBLIC "-//W3C//DTD SVG 1.1//EN" "http://www.w3.org/Graphics/SVG/1.1/DTD/svg11.dtd"><svg xmlns="http://www.w3.org/2000/svg" xmlns:xlink="http://www.w3.org/1999/xlink" version="1.1" id="Layer_1" x="0px" y="0px" width="24px" height="24px" viewBox="0 0 24 24" xml:space="preserve"><path d="M6.1 1.4l11.6 6.7-3.3 3.3L4 1.1c.2 0 .5-.1.7-.1.5 0 1 .1 1.4.4zm-4 19V3.6c0-.8.4-1.5 1-2l10.5 10.5L3.2 22.5c-.7-.5-1.1-1.3-1.1-2.1zm4 2.3c-.6.3-1.3.4-1.9.3l10.2-10.1 3.2 3.2-11.5 6.6zm14.5-8.4l-2.1 1.2-3.5-3.4 3.5-3.5 2 1.2c.8.5 1.3 1.3 1.3 2.3.1.8-.4 1.7-1.2 2.2z"/><metadata><rdf:RDF xmlns:rdf="http://www.w3.org/1999/02/22-rdf-syntax-ns#" xmlns:rdfs="http://www.w3.org/2000/01/rdf-schema#" xmlns:dc="http://purl.org/dc/elements/1.1/"><rdf:Description about="https://iconscout.com/legal#licenses" dc:title="play" dc:description="play" dc:publisher="Iconscout" dc:date="2018-01-30" dc:format="image/svg+xml" dc:language="en"><dc:creator><rdf:Bag><rdf:li>Roundicons.com</rdf:li></rdf:Bag></dc:creator></rdf:Description></rdf:RDF></metadata></svg>